<svg viewBox="0 0 48 48" height="48" width="48" xmlns="http://www.w3.org/2000/svg"><g transform="matrix(3.4285714285714284,0,0,3.4285714285714284,0,0)"><path d="M7.492,1.091,9.075,4.3a.55.55,0,0,0,.413.3l3.542.516a.548.548,0,0,1,.3.935l-2.564,2.5a.546.546,0,0,0-.157.485l.605,3.532a.548.548,0,0,1-.8.577L7.255,11.484a.548.548,0,0,0-.51,0L3.578,13.15a.548.548,0,0,1-.8-.577l.605-3.532a.546.546,0,0,0-.157-.485L.666,6.054a.548.548,0,0,1,.3-.935L4.512,4.6a.55.55,0,0,0,.413-.3L6.508,1.091A.549.549,0,0,1,7.492,1.091Z" fill="none" stroke="#000000" stroke-linecap="round" stroke-linejoin="round"></path></g></svg>